<?xml version="1.0" encoding="UTF-8" standalone="no"?>
<!DOCTYPE svg PUBLIC "-//W3C//DTD SVG 1.1//EN"
 "http://www.w3.org/Graphics/SVG/1.1/DTD/svg11.dtd">
<!-- Generated by graphviz version 2.40.1 (20161225.0304)
 -->
<!-- Title: G Pages: 1 -->
<svg width="163pt" height="456pt"
 viewBox="0.00 0.00 163.00 456.00" xmlns="http://www.w3.org/2000/svg" xmlns:xlink="http://www.w3.org/1999/xlink">
<g id="graph0" class="graph" transform="scale(1 1) rotate(0) translate(4 452)">
<title>G</title>
<polygon fill="#ffffff" stroke="transparent" points="-4,4 -4,-452 159,-452 159,4 -4,4"/>
<g id="clust1" class="cluster">
<title>cluster_Global</title>
<path fill="none" stroke="#c0c0c0" d="M20,-8C20,-8 135,-8 135,-8 141,-8 147,-14 147,-20 147,-20 147,-428 147,-428 147,-434 141,-440 135,-440 135,-440 20,-440 20,-440 14,-440 8,-434 8,-428 8,-428 8,-20 8,-20 8,-14 14,-8 20,-8"/>
<text text-anchor="middle" x="77.5" y="-427.2" font-family="Times,serif" font-size="11.00" fill="#c0c0c0">Global</text>
</g>
<g id="clust2" class="cluster">
<title>cluster_\VirtualAge</title>
<path fill="none" stroke="#c0c0c0" d="M28,-16C28,-16 127,-16 127,-16 133,-16 139,-22 139,-28 139,-28 139,-400 139,-400 139,-406 133,-412 127,-412 127,-412 28,-412 28,-412 22,-412 16,-406 16,-400 16,-400 16,-28 16,-28 16,-22 22,-16 28,-16"/>
<text text-anchor="middle" x="77.5" y="-399.2" font-family="Times,serif" font-size="11.00" fill="#c0c0c0">VirtualAge</text>
</g>
<g id="clust3" class="cluster">
<title>cluster_\VirtualAge\Xml</title>
<path fill="none" stroke="#c0c0c0" d="M36,-150C36,-150 119,-150 119,-150 125,-150 131,-156 131,-162 131,-162 131,-372 131,-372 131,-378 125,-384 119,-384 119,-384 36,-384 36,-384 30,-384 24,-378 24,-372 24,-372 24,-162 24,-162 24,-156 30,-150 36,-150"/>
<text text-anchor="middle" x="77.5" y="-371.2" font-family="Times,serif" font-size="11.00" fill="#c0c0c0">Xml</text>
</g>
<g id="clust4" class="cluster">
<title>cluster_\VirtualAge\Http</title>
<path fill="none" stroke="#c0c0c0" d="M54.5,-70C54.5,-70 100.5,-70 100.5,-70 106.5,-70 112.5,-76 112.5,-82 112.5,-82 112.5,-130 112.5,-130 112.5,-136 106.5,-142 100.5,-142 100.5,-142 54.5,-142 54.5,-142 48.5,-142 42.5,-136 42.5,-130 42.5,-130 42.5,-82 42.5,-82 42.5,-76 48.5,-70 54.5,-70"/>
<text text-anchor="middle" x="77.5" y="-129.2" font-family="Times,serif" font-size="11.00" fill="#c0c0c0">Http</text>
</g>
<!-- \\VirtualAge\\Xml\\Xml -->
<g id="node1" class="node">
<title>\\VirtualAge\\Xml\\Xml</title>
<polygon fill="none" stroke="#000000" points="104.5,-356 50.5,-356 50.5,-320 104.5,-320 104.5,-356"/>
<text text-anchor="middle" x="77.5" y="-335.2" font-family="Courier,monospace" font-size="11.00" fill="#000000">Xml</text>
</g>
<!-- \\VirtualAge\\Xml\\Auth -->
<g id="node2" class="node">
<title>\\VirtualAge\\Xml\\Auth</title>
<polygon fill="none" stroke="#000000" points="104.5,-302 50.5,-302 50.5,-266 104.5,-266 104.5,-302"/>
<text text-anchor="middle" x="77.5" y="-281.2" font-family="Courier,monospace" font-size="11.00" fill="#000000">Auth</text>
</g>
<!-- \\VirtualAge\\Xml\\Body -->
<g id="node3" class="node">
<title>\\VirtualAge\\Xml\\Body</title>
<polygon fill="none" stroke="#000000" points="104.5,-248 50.5,-248 50.5,-212 104.5,-212 104.5,-248"/>
<text text-anchor="middle" x="77.5" y="-227.2" font-family="Courier,monospace" font-size="11.00" fill="#000000">Body</text>
</g>
<!-- \\VirtualAge\\Xml\\BodyElement -->
<g id="node4" class="node">
<title>\\VirtualAge\\Xml\\BodyElement</title>
<polygon fill="none" stroke="#000000" points="123,-194 32,-194 32,-158 123,-158 123,-194"/>
<text text-anchor="middle" x="77.5" y="-173.2" font-family="Courier,monospace" font-size="11.00" fill="#000000">BodyElement</text>
</g>
<!-- \\VirtualAge\\Http\\Http -->
<g id="node5" class="node">
<title>\\VirtualAge\\Http\\Http</title>
<polygon fill="none" stroke="#000000" points="104.5,-114 50.5,-114 50.5,-78 104.5,-78 104.5,-114"/>
<text text-anchor="middle" x="77.5" y="-93.2" font-family="Courier,monospace" font-size="11.00" fill="#000000">Http</text>
</g>
<!-- \\VirtualAge\\VirtualAge -->
<g id="node6" class="node">
<title>\\VirtualAge\\VirtualAge</title>
<polygon fill="none" stroke="#000000" points="119.5,-60 35.5,-60 35.5,-24 119.5,-24 119.5,-60"/>
<text text-anchor="middle" x="77.5" y="-39.2" font-family="Courier,monospace" font-size="11.00" fill="#000000">VirtualAge</text>
</g>
</g>
</svg>
